<?xml version="1.0" standalone="no"?>
<!DOCTYPE svg PUBLIC "-//W3C//DTD SVG 20010904//EN"
 "http://www.w3.org/TR/2001/REC-SVG-20010904/DTD/svg10.dtd">
<svg version="1.0" xmlns="http://www.w3.org/2000/svg"
 width="1600.000000pt" height="1875.000000pt" viewBox="0 0 1600.000000 1875.000000"
 preserveAspectRatio="xMidYMid meet">

<g transform="translate(0.000000,1875.000000) scale(0.100000,-0.100000)"
fill="#000000" stroke="none">
<path d="M14030 6548 c-34 -81 -172 -336 -273 -503 -625 -1045 -1554 -1918
-2632 -2476 -820 -425 -1669 -663 -2602 -730 -221 -16 -897 -6 -1098 15 -462
50 -865 131 -1278 255 -1346 407 -2540 1247 -3390 2386 -198 264 -404 593
-553 880 -46 88 -84 157 -84 153 0 -12 85 -226 140 -353 29 -66 101 -217 161
-335 898 -1780 2596 -3035 4569 -3379 412 -72 733 -96 1200 -88 407 7 652 29
1005 93 432 78 904 215 1300 379 204 84 599 279 780 385 1215 712 2155 1796
2683 3095 71 177 104 266 98 272 -2 2 -13 -20 -26 -49z"/>
</g>
</svg>
